<svg width="375" height="258" viewBox="0 0 375 258" fill="none" xmlns="http://www.w3.org/2000/svg">
    <defs>
        <linearGradient id="paint0_linear_15719_51411" x1="306.637" y1="242.842" x2="279.033"
            y2="326.742" gradientUnits="userSpaceOnUse">
            <stop stop-color="#272438" />
            <stop offset="1" stop-color="#304260" />
        </linearGradient>
        <linearGradient id="paint1_linear_15719_51411" x1="323.146" y1="217.519" x2="327.713"
            y2="318.776" gradientUnits="userSpaceOnUse">
            <stop stop-color="#272438" />
            <stop offset="1" stop-color="#304260" />
        </linearGradient>
        <linearGradient id="paint2_linear_15719_51411" x1="284.429" y1="149.44" x2="293.83"
            y2="180.639" gradientUnits="userSpaceOnUse">
            <stop stop-color="#20AAE7" />
            <stop offset="0.4231" stop-color="#40B7EA" />
            <stop offset="0.7889" stop-color="#40B7EA" />
            <stop offset="1" stop-color="#80CFF1" />
        </linearGradient>
        <linearGradient id="paint3_linear_15719_51411" x1="277.976" y1="164.215" x2="282.236"
            y2="183.965" gradientUnits="userSpaceOnUse">
            <stop stop-color="#20AAE7" />
            <stop offset="0.4231" stop-color="#40B7EA" />
            <stop offset="0.7889" stop-color="#40B7EA" />
            <stop offset="1" stop-color="#80CFF1" />
        </linearGradient>
        <linearGradient id="paint4_linear_15719_51411" x1="324.847" y1="117.859" x2="312.915"
            y2="120.709" gradientUnits="userSpaceOnUse">
            <stop stop-color="white" stop-opacity="0" />
            <stop offset="1" stop-color="#E0BAD1" />
        </linearGradient>
        <linearGradient id="paint5_linear_15719_51411" x1="290.648" y1="134.913" x2="299.127"
            y2="164.17" gradientUnits="userSpaceOnUse">
            <stop stop-color="#20AAE7" />
            <stop offset="0.4231" stop-color="#40B7EA" />
            <stop offset="0.7889" stop-color="#40B7EA" />
            <stop offset="1" stop-color="#80CFF1" />
        </linearGradient>
        <linearGradient id="paint6_linear_15719_51411" x1="319.057" y1="148.841" x2="341.425"
            y2="234.172" gradientUnits="userSpaceOnUse">
            <stop stop-color="#80CFF1" />
            <stop offset="1" stop-color="#3EB6EA" />
        </linearGradient>
        <linearGradient id="paint7_linear_15719_51411" x1="307.185" y1="205.236" x2="307.185"
            y2="130.608" gradientUnits="userSpaceOnUse">
            <stop stop-color="#272438" />
            <stop offset="1" stop-color="#304260" />
        </linearGradient>
        <linearGradient id="paint8_linear_15719_51411" x1="255.716" y1="155.358" x2="288.455"
            y2="140.071" gradientUnits="userSpaceOnUse">
            <stop stop-color="#EEF4FB" />
            <stop offset="0.3115" stop-color="#E3EDF8" />
            <stop offset="1" stop-color="#CFE1F3" />
        </linearGradient>
        <linearGradient id="paint9_linear_15719_51411" x1="313.192" y1="130.861" x2="313.192"
            y2="122.429" gradientUnits="userSpaceOnUse">
            <stop stop-color="#272438" />
            <stop offset="1" stop-color="#304260" />
        </linearGradient>
        <linearGradient id="paint10_linear_15719_51411" x1="321.252" y1="117.36" x2="323.061"
            y2="131.826" gradientUnits="userSpaceOnUse">
            <stop stop-color="#20AAE7" />
            <stop offset="0.4231" stop-color="#40B7EA" />
            <stop offset="0.7889" stop-color="#40B7EA" />
            <stop offset="1" stop-color="#80CFF1" />
        </linearGradient>
        <linearGradient id="paint11_linear_15719_51411" x1="307.159" y1="119.681" x2="309.792"
            y2="128.856" gradientUnits="userSpaceOnUse">
            <stop stop-color="#20AAE7" />
            <stop offset="0.4231" stop-color="#40B7EA" />
            <stop offset="0.7889" stop-color="#40B7EA" />
            <stop offset="1" stop-color="#80CFF1" />
        </linearGradient>
        <linearGradient id="paint12_linear_15719_51411" x1="332.769" y1="142.394" x2="343.444"
            y2="194.425" gradientUnits="userSpaceOnUse">
            <stop stop-color="#20AAE7" />
            <stop offset="0.4231" stop-color="#40B7EA" />
            <stop offset="0.7889" stop-color="#40B7EA" />
            <stop offset="1" stop-color="#80CFF1" />
        </linearGradient>
        <clipPath id="clip0_15719_51411">
            <rect width="375" height="258" fill="white" />
        </clipPath>
    </defs>
    <g clip-path="url(#clip0_15719_51411)">
        <circle cx="299.5" cy="108.5" r="142.5" fill="#F4F4F4" />
        <path d="M231.931 68.4249L232.847 59.4507L206.947 50.1827L231.931 68.4249Z"
            fill="#A6A4E8" />
        <path d="M206.947 50.1827L225.356 69.4452L231.03 62.017L206.947 50.1827Z" fill="#DEDFF5" />
        <path d="M206.947 50.1827L232.847 59.4507L238.262 52.3934L206.947 50.1827Z"
            fill="#DEDFF5" />
        <path d="M231.03 62.017L231.931 68.4249L228.555 65.2557L231.03 62.017Z" fill="#8987BF" />
        <path d="M234.036 64.6373C234.325 64.8383 234.613 65.0393 234.908 65.2402" stroke="#8987BF"
            stroke-width="0.9921" stroke-miterlimit="10" />
        <path
            d="M238.565 67.4664C242.687 69.6848 247.327 71.1766 251.862 70.6124C258.031 69.8471 262.375 65.2711 269.134 66.7011C275.273 68.0075 280.577 73.3178 282.158 79.6793C283.222 83.9771 282.114 89.0323 278.738 91.7145C270.131 98.5553 260.506 87.9733 260.506 74.941C260.506 58.268 281.072 44.0066 310.504 41.595C345.823 38.7118 392.297 65.2402 407.781 119.634"
            stroke="#8987BF" stroke-width="0.9921" stroke-miterlimit="10"
            stroke-dasharray="2.86 2.86" />
        <path d="M156.595 217.121H153.026V215.545H156.595V217.121Z" fill="#C4C5F3" />
        <path d="M157.053 217.458H152.568V216.77H157.053V217.458Z" fill="#C4C5F3" />
        <path d="M158.168 219.241H151.445V217.463H158.168V219.241Z" fill="#C4C5F3" />
        <path d="M155.225 200.02H154.39L154.693 191.811H154.929L155.225 200.02Z" fill="#C4C5F3" />
        <path
            d="M155.757 199.889V215.889H153.858V199.889H155.757ZM154.685 206.923H154.434V215.201H154.685V206.923ZM155.188 206.923H154.937V215.201H155.188V206.923Z"
            fill="#C4C5F3" />
        <path d="M249.599 246.082H259.912V283.687H249.599V246.082Z" fill="#C4C5F3" />
        <path
            d="M193.839 283.687V211.762L218.816 199.618H228.079V197.477H228.441V216.477H230.333V203.707H240.542V216.477H242.248V236.164H244.169V283.687H193.839Z"
            fill="#40B7EA" />
        <path
            d="M352.314 283.687V241.792L366.86 234.719H372.252L379.514 237.1V244.536H380.511V256.007H381.627V283.687H352.314Z"
            fill="#C4C5F3" />
        <path d="M272.345 242.379H279.045V283.687H272.345V242.379Z" fill="#C4C5F3" />
        <path d="M274.605 235.886H286.994V283.687H274.605V235.886Z" fill="#C4C5F3" />
        <path d="M289.114 245.03H298.349V283.061H289.114V245.03Z" fill="#C4C5F3" />
        <path d="M264.448 200.368H280.479V283.053H264.448V200.368Z" fill="#C4C5F3" />
        <path d="M163.414 279.172H149.792V207.711H163.414V279.172Z" fill="#40B7EA" />
        <path d="M143.471 221.146H157.094V283.602H143.471V221.146Z" fill="#C4C5F3" />
        <path
            d="M162.612 199.487V212.079H171.876V207.224H176.936V205.207H179.625V207.224H192.354C192.398 207.302 192.435 207.379 192.487 207.456V229.053H197.813V283.687H161.763V199.487H162.612Z"
            fill="#009EE3" />
        <path
            d="M352.742 283.687V242.518L350.799 245.224H345.503V234.348H345.296V245.224H344.21V237.911H338.366V245.224H337.391V256.486H336.29V283.687H352.742Z"
            fill="#C4C5F3" />
        <path d="M324.197 212.233H334.51V283.679H324.197V212.233Z" fill="#C4C5F3" />
        <path d="M324.271 283.687V229.903H314.372L309.053 235.662V283.687H324.271Z"
            fill="#C4C5F3" />
        <path d="M238.762 246.082V248.3H238.023V252.745H235.504V283.687H248.668V246.082H238.762Z"
            fill="#009EE3" />
        <path d="M263.65 220.056H267.971V220.458H263.65V220.056Z" fill="#FFFFFB" />
        <path d="M262.571 220.465H269.05V227.26H262.571V220.465Z" fill="#D2D9F5" />
        <path d="M255.96 241.452H255.096V207.836H255.96V241.452Z" fill="#D5DEF5" />
        <path d="M254.036 241.452H253.172V207.836H254.036V241.452Z" fill="#D5DEF5" />
        <path d="M250.929 217.629H264.729V255.079H250.929V217.629Z" fill="#E4F3F7" />
        <path d="M242.116 242.364H257.622V231.094L242.116 242.364Z" fill="#F3FFF9" />
        <path d="M256.262 227.507H274.923V283.687H256.262V227.507Z" fill="#E4F3F7" />
        <path d="M241.318 241.444H258.42V283.687H241.318V241.444Z" fill="#D5DEF5" />
        <path d="M35.5411 256.208V257.939H34.9575V261.41H32.9999V285.534H43.261V256.208H35.5411Z"
            fill="#40B7EA" />
        <path d="M54.948 235.909H58.3167V236.226H54.948V235.909Z" fill="#FFFFFB" />
        <path d="M54.1057 236.226H59.1587V241.521H54.1057V236.226Z" fill="#D2D9F5" />
        <path d="M48.9599 252.597H48.2803V226.378H48.9599V252.597Z" fill="#009EE3" />
        <path d="M47.455 252.597H46.7754V226.378H47.455V252.597Z" fill="#009EE3" />
        <path d="M45.0341 234.016H55.7976V263.226H45.0341V234.016Z" fill="#E4F3F7" />
        <path d="M38.1563 253.309H50.2495V244.52L38.1563 253.309Z" fill="#F3FFF9" />
        <path d="M49.1931 241.722H63.7463V285.542H49.1931V241.722Z" fill="#E4F3F7" />
        <path d="M37.5284 252.59H50.8701V285.534H37.5284V252.59Z" fill="#009EE3" />
        <path d="M210.682 176.352H217.648V224.902H210.682V176.352Z" fill="#BAB7F2" />
        <path d="M197.651 178.184H223.034V238.174H197.651V178.184Z" fill="#D5DEF5" />
        <path d="M225.902 224.254H221.292V222.971H225.902V224.254Z" fill="#F3FFF9" />
        <path d="M226.485 224.526H220.701V223.97H226.485V224.526Z" fill="#F3FFF9" />
        <path d="M227.926 233.88H219.253V224.527H227.926V233.88Z" fill="#007EB6" />
        <path d="M213.63 202.138V283.687H193.839V211.762L213.63 202.138Z" fill="#D5DEF5" />
        <path d="M218.01 219.816H229.801V283.687H218.01V219.816Z" fill="#007EB6" />
        <path d="M220.042 226.085H221.01V266.759H220.042V226.085Z" fill="#009EE3" />
        <path d="M222.199 226.085H223.167V266.759H222.199V226.085Z" fill="#009EE3" />
        <path d="M224.349 226.085H225.317V266.759H224.349V226.085Z" fill="#009EE3" />
        <path d="M226.499 226.085H227.466V266.759H226.499V226.085Z" fill="#009EE3" />
        <path d="M206.627 218.494H213.438V226.062H206.627V218.494Z" fill="#D5DEF5" />
        <path d="M104.613 201.443H109.955V238.638H104.613V201.443Z" fill="#BAB7F2" />
        <path d="M94.6256 202.849H114.077V248.818H94.6256V202.849Z" fill="#D5DEF5" />
        <path d="M116.271 238.147H112.74V237.165H116.271V238.147Z" fill="#F3FFF9" />
        <path d="M116.722 238.358H112.289V237.933H116.722V238.358Z" fill="#F3FFF9" />
        <path d="M117.83 245.526H111.181V238.361H117.83V245.526Z" fill="#BAB7F2" />
        <path d="M106.874 221.207V283.687H91.7077V228.574L106.874 221.207Z" fill="#D5DEF5" />
        <path d="M110.228 234.75H119.263V283.687H110.228V234.75Z" fill="#C4C5F3" />
        <path d="M111.787 239.55H112.525V270.716H111.787V239.55Z" fill="#C0C0F3" />
        <path d="M113.441 239.55H114.18V270.716H113.441V239.55Z" fill="#C0C0F3" />
        <path d="M115.089 239.55H115.827V270.716H115.089V239.55Z" fill="#C0C0F3" />
        <path d="M116.736 239.55H117.475V270.716H116.736V239.55Z" fill="#C0C0F3" />
        <path d="M101.511 233.737H106.726V239.535H101.511V233.737Z" fill="#D5DEF5" />
        <path d="M293.773 238.416H290.146V232.819H293.773V238.416Z" fill="#B8B5F2" />
        <path d="M291.459 240.252H286.731V235.993H291.459V240.252Z" fill="#B8B5F2" />
        <path d="M271.957 200.055H265.56V193.161H271.957V200.055Z" fill="#B8B5F2" />
        <path
            d="M303.084 283.687L302.338 240.323H301.444V235.878L286.787 234.294V243.044H285.059V195.375H264.226V241.954H262.35V283.687H303.084Z"
            fill="#D9E3F6" />
        <path d="M300.691 251.522H294.338V249.705H300.691V251.522Z" fill="#C4C5F3" />
        <path d="M300.691 254.837H294.338V253.02H300.691V254.837Z" fill="#C4C5F3" />
        <path d="M300.691 258.152H294.338V256.335H300.691V258.152Z" fill="#C4C5F3" />
        <path d="M114.247 246.082H124.56V283.687H114.247V246.082Z" fill="#C4C5F3" />
        <path
            d="M62.5866 283.687V228.574L81.72 219.275H88.8193V217.636H89.0927V232.191H90.548V222.405H98.3713V232.191H99.6788V247.272H101.149V283.687H62.5866Z"
            fill="#009EE3" />
        <path d="M129.096 200.368H145.126V283.053H129.096V200.368Z" fill="#C4C5F3" />
        <path d="M103.409 246.082V248.3H102.671V252.745H100.152V283.687H113.316V246.082H103.409Z"
            fill="#40B7EA" />
        <path d="M128.297 220.056H132.619V220.458H128.297V220.056Z" fill="#FFFFFB" />
        <path d="M127.219 220.465H133.698V227.26H127.219V220.465Z" fill="#D2D9F5" />
        <path d="M120.608 241.452H119.744V207.836H120.608V241.452Z" fill="#D5DEF5" />
        <path d="M118.684 241.452H117.82V207.836H118.684V241.452Z" fill="#D5DEF5" />
        <path d="M115.577 217.629H129.376V255.079H115.577V217.629Z" fill="#E4F3F7" />
        <path d="M106.763 242.364H122.27V231.094L106.763 242.364Z" fill="#F3FFF9" />
        <path d="M120.91 227.507H139.571V283.687H120.91V227.507Z" fill="#E4F3F7" />
        <path d="M105.966 241.444H123.067V283.687H105.966V241.444Z" fill="#D5DEF5" />
        <path d="M76.1721 216.57H79.7476V241.498H76.1721V216.57Z" fill="#BAB7F2" />
        <path d="M69.4791 217.513H82.5105V248.316H69.4791V217.513Z" fill="#D5DEF5" />
        <path d="M83.9841 241.167H81.6201V240.509H83.9841V241.167Z" fill="#F3FFF9" />
        <path d="M84.2871 241.308H81.3174V241.022H84.2871V241.308Z" fill="#F3FFF9" />
        <path d="M85.0259 246.11H80.5713V241.31H85.0259V246.11Z" fill="#BAB7F2" />
        <path d="M77.6865 229.811V271.675H67.5288V234.75L77.6865 229.811Z" fill="#D5DEF5" />
        <path d="M79.9397 238.885H85.99V271.675H79.9397V238.885Z" fill="#D5DEF5" />
        <path d="M80.9814 242.109H81.4763V262.994H80.9814V242.109Z" fill="#C0C0F3" />
        <path d="M82.0819 242.109H82.5769V262.994H82.0819V242.109Z" fill="#C0C0F3" />
        <path d="M83.1901 242.109H83.6851V262.994H83.1901V242.109Z" fill="#C0C0F3" />
        <path d="M84.2982 242.109H84.7932V262.994H84.2982V242.109Z" fill="#C0C0F3" />
        <path d="M74.0963 238.205H77.5906V242.093H74.0963V238.205Z" fill="#D5DEF5" />
        <path d="M136.606 200.055H130.208V193.161H136.606V200.055Z" fill="#9CE1FF" />
        <path
            d="M167.732 283.687L166.986 240.323H166.092V235.878L151.435 234.294V243.044H149.706V195.375H128.874V241.954H126.997V283.687H167.732Z"
            fill="#D9E3F6" />
        <path d="M165.339 251.522H158.986V249.705H165.339V251.522Z" fill="#A2E3FF" />
        <path d="M165.339 254.837H158.986V253.02H165.339V254.837Z" fill="#A2E3FF" />
        <path d="M165.339 258.152H158.986V256.335H165.339V258.152Z" fill="#A2E3FF" />
        <path d="M161.533 250.287H175.37V283.617H161.533V250.287Z" fill="#D5DEF5" />
        <path
            d="M168.367 231.086V192.082H171.315V190.227H171.98V189.941H172.253V189.423H172.748V185.558H173.065L173.243 182.18H173.383L173.56 185.558H173.878V189.423H174.373V189.941H174.646V190.227H175.311V192.082H183.511L188.239 198.103V231.086H168.367ZM173.376 189.284H173.524V185.821H173.376V189.284ZM173.08 189.284H173.228V185.821H173.08V189.284Z"
            fill="#D2D9F5" />
        <path d="M179.928 215.201H197.34V260.173H179.928V215.201Z" fill="#38B4E9" />
        <path d="M332.574 237.015H335.212V237.749H332.574V237.015Z" fill="#F3FFF9" />
        <path d="M332.235 237.594H335.544V237.911H332.235V237.594Z" fill="#F3FFF9" />
        <path d="M331.407 237.911H336.372V243.26H331.407V237.911Z" fill="#BAB7F2" />
        <path d="M336.276 247.133H343.02V283.687H336.276V247.133Z" fill="#C4C5F3" />
        <path d="M341.858 269.9H341.304V246.626H341.858V269.9Z" fill="#C0C0F3" />
        <path d="M340.621 269.9H340.067V246.626H340.621V269.9Z" fill="#C0C0F3" />
        <path d="M339.391 269.9H338.837V246.626H339.391V269.9Z" fill="#C0C0F3" />
        <path d="M338.162 269.9H337.608V246.626H338.162V269.9Z" fill="#C0C0F3" />
        <path d="M342.475 283.68H330.323V221.193H342.475V283.68Z" fill="#B8B5F2" />
        <path d="M358.645 266.341H351.294V244.234L358.645 266.341Z" fill="#F3FFF9" />
        <path d="M361.802 253.754H352.767V219.294H361.802V253.754Z" fill="#B8B5F2" />
        <path d="M352.053 241.672H347.857V241.309H352.053V241.672Z" fill="#FFFFFB" />
        <path d="M363.801 228.837H364.651V283.378H363.801V228.837Z" fill="#B8B5F2" />
        <path d="M361.91 228.837H362.76V283.378H361.91V228.837Z" fill="#B8B5F2" />
        <path d="M360.026 256.269H360.876V283.378H360.026V256.269Z" fill="#B8B5F2" />
        <path d="M358.135 256.269H358.984V283.378H358.135V256.269Z" fill="#B8B5F2" />
        <path d="M344.431 233.476H340.531V229.147H344.431V233.476Z" fill="#D5DEF5" />
        <path d="M356.007 254.986H361.696V283.679H356.007V254.986Z" fill="#B8B5F2" />
        <path d="M321.117 208.145H307.672V206.909H321.117V208.145Z" fill="#D2D9F5" />
        <path d="M321.117 210.409H307.672V209.172H321.117V210.409Z" fill="#D2D9F5" />
        <path d="M321.117 212.664H307.672V211.428H321.117V212.664Z" fill="#D2D9F5" />
        <path d="M321.117 214.928H307.672V213.691H321.117V214.928Z" fill="#D2D9F5" />
        <path d="M321.117 217.183H307.672V215.946H321.117V217.183Z" fill="#D2D9F5" />
        <path d="M321.117 219.446H307.672V218.21H321.117V219.446Z" fill="#D2D9F5" />
        <path d="M321.117 221.71H307.672V220.473H321.117V221.71Z" fill="#D2D9F5" />
        <path d="M321.117 223.965H307.672V222.728H321.117V223.965Z" fill="#D2D9F5" />
        <path d="M321.117 226.228H307.672V224.992H321.117V226.228Z" fill="#D2D9F5" />
        <path d="M333.047 283.687H308.987L308.758 205.408L333.047 202.772V283.687Z"
            fill="#D2D9F5" />
        <path d="M333.047 283.687H328.172L327.891 205.238L333.047 202.772V283.687Z"
            fill="#B1ABEF" />
        <path d="M309.053 235.662L314.372 229.903H324.271L309.053 235.662Z" fill="#D5DEF5" />
        <path opacity="0.43" d="M317.29 244.667H318.021V283.679H317.29V244.667Z" fill="#F3FFF9" />
        <path opacity="0.43" d="M315.672 244.667H316.404V283.679H315.672V244.667Z" fill="#F3FFF9" />
        <path opacity="0.43" d="M314.055 244.667H314.786V283.679H314.055V244.667Z" fill="#F3FFF9" />
        <path opacity="0.43" d="M312.437 244.667H313.168V283.679H312.437V244.667Z" fill="#F3FFF9" />
        <path d="M283.551 241.305H295.253V246.901H283.551V241.305Z" fill="#E4F3F7" />
        <path d="M161.77 212.071H186.171V283.687H161.77V212.071Z" fill="#E4F3F7" />
        <path d="M166.919 226.208H181.716V283.447H166.919V226.208Z" fill="#D5DEF5" />
        <path
            d="M344.224 232.926L345.687 242.078V263.497H346.95V253.286H350.74V241.823H354.774V225.103H361.444V221.818H362.841V225.103H365.463V228.821H366.859V219.174H369.593V283.687H338.056V239.156L339.053 233.072L344.224 232.926Z"
            fill="#D9E3F6" />
        <path d="M321.124 246.004H327.049V283.679H321.124V246.004Z" fill="#E4F3F7" />
        <path d="M304.879 235.33H309.348V283.687H304.879V235.33Z" fill="#E4F3F7" />
        <path
            d="M315.99 300H290.585C289.595 291.08 288.841 283.659 288.531 279.23C287.083 258.429 287.932 230.757 286.004 227.882C284.084 225.006 291.198 208.727 291.198 208.727L307.982 212.747L315.864 241.486C315.864 241.486 316.647 287.37 316.167 295.81C316.13 296.599 316.064 298.037 315.99 300Z"
            fill="url(#paint0_linear_15719_51411)" />
        <path
            d="M318.487 300C317.187 292.518 316.012 286.458 315.089 282.948C310.346 264.861 301.164 208.928 301.164 208.928L341.949 212.747C341.949 212.747 345.495 234.838 346.493 259.102C345.865 259.581 345.555 260.555 346.271 261.297C346.375 261.405 346.485 261.514 346.589 261.63C346.685 264.436 346.744 267.265 346.751 270.086C346.781 277.089 346.626 287.826 346.375 300H318.487Z"
            fill="url(#paint1_linear_15719_51411)" />
        <path
            d="M274.222 159.62C274.222 159.62 273.771 164.784 276.467 167.69C279.164 170.597 282.082 176.301 282.082 176.301C282.082 176.301 285.613 172.854 287.519 170.164C289.425 167.474 295.556 156.498 295.675 150.901C295.785 145.305 286.241 136.91 286.241 136.91C286.241 136.91 280.959 145.954 280.516 151.118C280.058 156.281 274.222 159.62 274.222 159.62Z"
            fill="url(#paint2_linear_15719_51411)" />
        <path
            d="M269.952 156.065C270.853 158.646 270.853 161.336 270.853 164.892C270.853 168.44 270.513 174.577 272.648 176.085C274.783 177.592 277.812 180.498 280.397 178.133C282.983 175.768 284.328 171.996 284.667 168.448C285.007 164.9 280.848 159.729 278.942 156.606L269.952 156.065Z"
            fill="#FEC4AD" />
        <path
            d="M287.519 170.164C287.519 170.164 285.495 173.975 280.397 178.133C275.3 182.284 271.436 180.205 269.952 178.133C268.467 176.062 269.952 161.135 269.952 161.135C269.952 161.135 275.344 161.986 278.935 156.606L287.519 170.164Z"
            fill="url(#paint3_linear_15719_51411)" />
        <path d="M275.773 161.87L269.952 161.135V156.065L275.773 156.606V161.87Z" fill="#AEBFDE" />
        <path
            d="M328.068 112.825C328.992 115.569 337.679 118.761 337.679 118.761C337.679 118.761 311.402 150.244 301.259 150.043C291.117 149.842 305.692 120.353 305.692 120.353C305.692 120.353 308.64 118.807 309.57 115.816C310.494 112.825 308.558 99.9392 308.558 99.9392L319.263 93.0829C319.27 93.0752 327.145 110.081 328.068 112.825Z"
            fill="#FEC4AD" />
        <path
            d="M328.068 112.825C328.992 115.569 337.679 118.761 337.679 118.761C337.679 118.761 311.402 150.244 301.259 150.043C291.117 149.842 305.692 120.353 305.692 120.353C305.692 120.353 308.64 118.807 309.57 115.816C310.494 112.825 308.558 99.9392 308.558 99.9392L319.263 93.0829C319.27 93.0752 327.145 110.081 328.068 112.825Z"
            fill="url(#paint4_linear_15719_51411)" />
        <path
            d="M295.357 75.7065C293.747 77.322 291.087 80.553 291.331 82.4004C291.575 84.2478 291.508 89.9678 292.934 92.7737C294.914 96.6772 294.685 102.645 295.97 106.154C297.256 109.655 303.697 114.989 304.724 115.422C305.751 115.855 309.216 115.159 310.878 113.799C312.54 112.446 321.287 100.759 319.27 93.0752C319.27 93.0752 323.112 93.8482 324.434 86.1725C324.781 84.1705 317.091 78.6824 315.879 76.7345C312.932 71.9962 302.515 76.0157 299.516 76.3326C296.524 76.6495 295.357 75.7065 295.357 75.7065Z"
            fill="#FEC4AD" />
        <path
            d="M291.678 85.4536C291.678 85.4536 290.363 80.7308 294.212 80.2129L306.224 77.6544C309.607 76.5645 310.967 75.892 310.967 75.892C310.967 75.892 311.964 80.6844 313.161 81.7588C314.357 82.8333 316.795 83.8768 317.253 85.3995C317.711 86.9223 317.903 88.5146 317.903 88.5146C317.903 88.5146 319.455 85.2759 321.279 85.3841C323.104 85.4846 323.702 88.3368 322.247 90.0528C320.799 91.7688 319.263 93.0906 319.263 93.0906C319.263 93.0906 319.721 95.2936 320.467 96.8859C321.213 98.4782 322.602 101.137 322.602 101.137C322.602 101.137 324.257 90.3852 326.465 85.6237C328.674 80.8699 328.704 67.6444 315.34 67.8299C315.34 67.8299 306.615 60.8422 297.979 62.7592C290.496 64.4288 282.569 70.8599 289.041 81.4342C291.286 85.0981 291.678 85.4536 291.678 85.4536Z"
            fill="#7B2B1A" />
        <path
            d="M305.625 91.0191C305.625 91.0191 305.367 92.0781 304.244 93.1293C303.121 94.1805 302.249 94.1728 300.905 92.8124C300.905 92.8124 302.567 90.4394 305.625 91.0191Z"
            fill="white" />
        <path
            d="M303.542 91.2664C303.934 91.1118 304.17 92.3563 304.104 92.6191C304.008 93.0443 303.83 93.5931 302.907 93.7399C301.555 93.9486 301.267 92.1631 301.267 92.1631L303.542 91.2664Z"
            fill="#542F38" />
        <path opacity="0.35"
            d="M301.843 92.4027C302.419 92.3563 302.803 92.9824 302.449 93.3071C302.094 93.6395 301.592 93.7786 301.437 93.2762C301.282 92.7737 301.267 92.4491 301.843 92.4027Z"
            fill="white" />
        <path
            d="M306.785 91.0809C306.785 91.0809 302.944 90.9031 300.269 93.2452C300.269 93.2452 299.967 92.6423 300.691 91.9776C301.089 91.6143 301.998 91.1196 302.951 90.9031C306.202 90.1533 306.785 91.0809 306.785 91.0809Z"
            fill="#782F38" />
        <path
            d="M299.139 88.275C299.139 88.275 298.386 87.4557 298.497 86.3039C298.497 86.3039 302.405 84.1705 307.672 85.9329C307.672 85.9329 308.27 86.3117 307.317 86.3194C306.372 86.3349 301.134 86.0721 299.139 88.275Z"
            fill="#8E373F" />
        <path
            d="M293.99 94.3584C293.99 94.3584 294.02 96.1903 294.98 96.4067C296.258 96.6927 296.325 95.2627 296.295 94.2888C296.295 94.2811 295.143 93.5545 293.99 94.3584Z"
            fill="white" />
        <path
            d="M293.983 94.6134C293.68 94.7139 294.057 95.626 294.204 95.7651C294.448 95.9893 294.788 96.2521 295.409 95.8656C296.332 95.3091 295.756 94.0182 295.756 94.0182L293.983 94.6134Z"
            fill="#542F38" />
        <path opacity="0.35"
            d="M294.012 95.1159C293.584 95.4173 293.614 96.0898 294.02 96.1207C294.426 96.1594 294.847 95.9661 294.714 95.5101C294.589 95.054 294.441 94.8144 294.012 95.1159Z"
            fill="white" />
        <path
            d="M293.577 94.8067C293.141 94.8299 293.237 94.4279 293.939 94.0801C294.714 93.6936 295.593 93.5235 296.051 93.5545C296.879 93.6163 296.96 94.227 296.96 94.227C295.83 94.1728 294.759 94.4666 293.857 94.8531C293.769 94.8221 293.68 94.8067 293.577 94.8067Z"
            fill="#782F38" />
        <path
            d="M291.73 89.7282C293.658 87.5716 294.995 87.4093 294.995 87.4093C295.505 88.02 295.549 89.2103 295.549 89.2103C293.761 89.5582 292.542 90.1843 291.745 90.7022C291.597 90.2538 291.612 89.8983 291.73 89.7282Z"
            fill="#8E373F" />
        <path
            d="M310.183 88.9166C310.213 89.2721 309.541 89.705 309.437 89.8364C309.216 90.1224 309.363 90.107 309.053 92.9051C308.832 94.969 307.524 96.2907 304.214 96.7236C301.688 97.056 301.067 94.7757 300.476 93.8481C299.885 92.9206 299.627 92.851 299.25 92.967C298.881 93.0829 298.726 93.2761 298.666 94.4047C298.607 95.5332 299.39 97.9372 296.96 98.7643C295.283 99.3285 294.655 99.058 293.835 97.7671C293.104 96.6154 292.52 95.4096 292.18 94.4588C291.84 93.4926 291.611 92.9206 292.003 92.65C292.491 92.3177 293.229 92.1167 293.968 91.8925C295.438 91.4442 296.428 90.9495 297.418 91.1659C298.415 91.3824 298.489 91.792 298.918 91.6684C299.346 91.5447 299.25 91.1196 299.996 90.3775C300.742 89.6277 304.665 88.4296 306.135 87.9736C307.605 87.5252 309.711 87.1078 309.925 87.7107C310.05 88.0199 310.154 88.4992 310.183 88.9166ZM297.499 92.8587C297.108 92.1399 297.086 92.2558 295.231 92.7119C293.37 93.1679 293.229 93.3457 293.022 93.8327C292.816 94.3119 293.089 95.6414 293.939 97.1178C294.397 97.914 295.017 98.9188 296.509 98.4628C298.105 97.9681 298.098 96.9632 298.009 95.5796C297.92 94.1883 297.647 93.1215 297.499 92.8587ZM307.783 88.9011C307.376 88.6074 304.961 89.4654 303.151 90.1301C301.341 90.8026 300.742 91.0191 300.75 91.8616C300.75 92.1708 301.023 93.2375 301.614 94.4665C302.198 95.6955 302.892 96.6772 305.781 95.8038C307.819 95.1931 308.47 94.111 308.558 92.109C308.632 90.362 308.189 89.1949 307.783 88.9011ZM318.28 87.788C318.28 87.788 317.32 87.1619 316.943 87.2315C316.773 87.2624 316.478 87.5252 316.478 87.5252L310.154 89.133L308.012 87.4943C308.012 87.4943 313.382 86.0643 316.019 85.3996C317.268 85.0826 319.048 86.7677 319.048 86.7677C319.048 86.7677 318.612 87.1542 318.28 87.788Z"
            fill="#2F2521" />
        <path
            d="M298.74 93.7013C298.74 93.7013 298.194 98.7875 297.093 99.831C295.682 101.168 296.266 102.219 297.337 102.544C298.408 102.861 300.92 102.39 300.92 102.39C300.92 102.39 300.861 99.8928 300.085 98.0763C299.302 96.2521 298.74 93.7013 298.74 93.7013Z"
            fill="#F49A8A" />
        <path
            d="M299.723 104.592C299.723 104.592 300.247 106.347 301.584 107.221C302.005 107.507 302.486 107.692 303.062 107.723C304.835 107.823 305.751 106.788 306.231 105.628C306.807 104.237 306.741 102.668 306.741 102.668C306.741 102.668 304.938 103.758 302.67 104.245C300.41 104.708 299.723 104.592 299.723 104.592Z"
            fill="#542F38" />
        <path
            d="M301.585 107.221C302.006 107.507 302.486 107.692 303.062 107.723C304.835 107.823 305.751 106.788 306.231 105.628C305.781 105.358 303.062 107.723 301.585 107.221Z"
            fill="#C85A58" />
        <path
            d="M295.948 123.237C290.504 126.042 288.819 129.59 286.123 136.694C283.426 143.798 280.73 145.413 280.73 145.413C280.73 145.413 286.455 146.704 292.86 159.945C292.86 159.945 299.597 155.423 301.282 146.387C302.973 137.343 295.948 123.237 295.948 123.237Z"
            fill="url(#paint5_linear_15719_51411)" />
        <path
            d="M332.952 115.267L351.014 122.425C351.014 122.425 353.924 140.281 353.688 146.928C353.452 153.576 343.87 219.58 343.87 219.58C343.87 219.58 319.92 222.37 307.879 219.58C295.837 216.789 287.526 214.239 287.526 214.239C287.526 214.239 291.685 149.827 292.631 143.179C293.577 136.532 295.948 123.229 295.948 123.229L305.374 118.56L310.605 122.425L332.952 115.267Z"
            fill="url(#paint6_linear_15719_51411)" />
        <path
            d="M308.536 130.611C308.536 130.611 302.205 189.936 301.001 196.661L305.116 205.234C305.116 205.234 312.03 200.279 312.429 197.519C312.828 194.767 313.36 130.904 313.36 130.904L308.536 130.611Z"
            fill="url(#paint7_linear_15719_51411)" />
        <path
            d="M279.703 145.444C280.951 144.988 286.359 143.612 288.457 143.666C290.555 143.72 296.93 143.164 299.45 143.543C301.969 143.921 304.303 147.601 306.453 148.667C307.591 149.232 309.851 150.329 312.562 151.597C311.639 154.094 310.775 156.606 309.903 159.126C308.558 158.152 307.384 157.441 306.49 157.178C302.84 156.111 302.936 155.114 300.971 155.222C299.006 155.323 299.302 155.354 297.529 155.044C295.756 154.735 294.53 152.022 293.259 151.187C291.988 150.345 290.127 149.456 290.348 148.752C290.57 148.049 290.659 147.199 294.921 148.173C294.921 148.173 290.865 146.642 289.063 146.611C287.26 146.588 283.448 147.098 281.646 147.067C279.843 147.044 278.455 145.9 279.703 145.444Z"
            fill="#FEC4AD" />
        <path d="M313.589 151.844L308.492 149.224L303.845 159.999L308.817 163.779L313.589 151.844Z"
            fill="#AEBFDE" />
        <path
            d="M297.573 164.598L282.917 168.154C281.409 168.51 279.592 167.559 278.839 166.036L262.549 132.311C261.811 130.796 262.409 129.273 263.894 128.91L278.418 125.285C281.092 125.184 282.466 125.826 283.234 127.38L299.538 160.857C300.314 162.419 300.107 163.47 297.573 164.598Z"
            fill="#97A3CC" />
        <path
            d="M296.753 164.869L282.023 168.448C280.508 168.811 278.676 167.853 277.923 166.322L261.574 132.45C260.828 130.935 261.434 129.405 262.934 129.042L277.531 125.409C279.105 125.022 281.003 125.981 281.772 127.542L298.216 161.329C298.999 162.906 298.334 164.49 296.753 164.869Z"
            fill="url(#paint8_linear_15719_51411)" />
        <path
            d="M273.01 158.878C271.532 158.484 269.567 158.33 269.072 157.387C268.578 156.444 267.846 156.212 267.026 155.501C266.206 154.797 266.701 154.086 265.719 153.22C264.736 152.355 265.719 150.863 265.637 150.082C265.556 149.294 265.475 147.724 265.8 146.31C266.125 144.895 267.44 144.578 269.161 144.03C270.882 143.481 272.109 143.481 272.109 144.347C272.109 145.212 270.306 146.387 270.306 146.387C270.306 146.387 273.254 145.444 274.074 145.127C274.894 144.81 276.201 145.521 275.632 146.542C275.056 147.562 272.685 148.899 271.946 149.294C271.207 149.688 270.801 150.468 270.801 150.468C270.801 150.468 273.017 150.468 274.569 149.842C276.127 149.216 277.516 147.802 278.587 148.428C279.651 149.054 279.082 149.842 278.011 150.708C278.011 150.708 275.714 152.2 274.982 152.517C274.982 152.517 277.28 152.594 278.425 152.123C279.57 151.651 280.146 152.2 279.821 153.066C279.496 153.931 276.297 154.635 276.216 154.952C276.135 155.269 276.792 156.049 277.199 156.992C277.598 157.935 273.01 158.878 273.01 158.878Z"
            fill="#FEC4AD" />
        <path
            d="M305.781 123.762L308.536 130.611L313.368 130.858L320.607 122.75L310.036 122.433L305.781 123.762Z"
            fill="url(#paint9_linear_15719_51411)" />
        <path d="M330.765 111.951L310.604 122.433L318.768 128.957L332.951 115.267L330.765 111.951Z"
            fill="url(#paint10_linear_15719_51411)" />
        <path d="M310.604 122.433L304.022 127.519L305.374 118.568L307.517 116.025L310.604 122.433Z"
            fill="url(#paint11_linear_15719_51411)" />
        <path
            d="M351.014 122.433C351.014 122.433 356.761 126.985 358.01 129.142C359.258 131.299 358.512 136.331 359.007 141.834C359.509 147.346 357.589 174.894 354.833 179.439C352.085 183.992 347.084 185.19 344.587 185.19C342.09 185.19 308.817 163.779 308.817 163.779L313.589 151.837L338.012 161.468C338.012 161.468 337.761 142.066 337.51 137.753C337.266 133.447 346.012 123.623 351.014 122.433Z"
            fill="url(#paint12_linear_15719_51411)" />
        <path
            d="M228.602 131.847V124.852L231.882 123.839C232.096 123.167 232.355 122.518 232.657 121.899L231.017 118.753L235.745 113.806L238.752 115.522C239.35 115.205 239.964 114.935 240.606 114.711L241.574 111.279H248.26L249.227 114.711C249.87 114.935 250.491 115.205 251.082 115.522L254.088 113.806L258.816 118.753L257.176 121.899C257.479 122.525 257.738 123.167 257.952 123.839L261.232 124.852V131.847L257.952 132.86C257.738 133.533 257.479 134.182 257.176 134.8L258.816 137.946L254.088 142.893L251.082 141.177C250.483 141.494 249.87 141.765 249.227 141.989L248.26 145.421H241.574L240.606 141.989C239.964 141.765 239.343 141.494 238.752 141.177L235.738 142.893L231.01 137.946L232.65 134.8C232.347 134.174 232.089 133.533 231.874 132.86L228.602 131.847ZM237.57 128.354C237.57 132.605 240.865 136.052 244.921 136.052C248.984 136.052 252.278 132.605 252.278 128.354C252.278 124.102 248.984 120.655 244.921 120.655C240.865 120.655 237.57 124.102 237.57 128.354Z"
            fill="#D5DEF5" />
        <path
            d="M205.553 112.655V108.334L207.577 107.708C207.71 107.29 207.873 106.896 208.057 106.509L207.045 104.569L209.963 101.516L211.818 102.575C212.187 102.382 212.564 102.212 212.963 102.073L213.561 99.9546H217.691L218.289 102.073C218.688 102.212 219.065 102.382 219.434 102.575L221.288 101.516L224.206 104.569L223.194 106.509C223.379 106.896 223.541 107.29 223.674 107.708L225.698 108.334V112.655L223.674 113.281C223.541 113.698 223.379 114.092 223.194 114.479L224.206 116.419L221.288 119.472L219.434 118.413C219.065 118.606 218.688 118.776 218.289 118.916L217.691 121.034H213.561L212.963 118.916C212.564 118.776 212.187 118.606 211.818 118.413L209.963 119.472L207.045 116.419L208.057 114.479C207.873 114.092 207.71 113.698 207.577 113.281L205.553 112.655ZM211.094 110.498C211.094 113.118 213.125 115.244 215.629 115.244C218.134 115.244 220.165 113.118 220.165 110.498C220.165 107.878 218.134 105.752 215.629 105.752C213.125 105.744 211.094 107.87 211.094 110.498Z"
            fill="#D5DEF5" />
        <path d="M254.953 164.753V174.554" stroke="#E9F2F4" stroke-width="0.3024"
            stroke-miterlimit="10" />
        <path
            d="M250.151 164.073C250.151 166.786 252.301 168.989 254.953 168.989C257.605 168.989 259.755 166.786 259.755 164.073C259.755 161.36 257.605 159.157 254.953 159.157C252.301 159.157 250.151 161.36 250.151 164.073Z"
            fill="#40B7EA" />
        <path
            d="M250.151 181.302C250.151 184.016 252.301 186.219 254.953 186.219C257.605 186.219 259.755 184.016 259.755 181.302C259.755 178.589 257.605 176.386 254.953 176.386C252.301 176.386 250.151 178.589 250.151 181.302Z"
            fill="#40B7EA" />
        <path d="M255.337 166.005L257.561 163.076L255.544 163.941L250.912 159.798L255.337 166.005Z"
            fill="white" />
        <path d="M255.337 183.428L257.561 180.498L255.544 181.364L250.912 177.221L255.337 183.428Z"
            fill="white" />
        <path d="M191.901 166.005H247.314V171.3H191.901V166.005Z" fill="#E9F2F4" />
        <path d="M211.094 183.042H247.314V188.336H211.094V183.042Z" fill="#E9F2F4" />
        <path d="M215.63 160.819H247.314V163.532H215.63V160.819Z" fill="#40B7EA" />
        <path d="M227.686 177.7H247.314V180.413H227.686V177.7Z" fill="#40B7EA" />
    </g>
</svg>
