<svg width="208" height="44" viewBox="0 0 208 44" fill="none" xmlns="http://www.w3.org/2000/svg">
<path d="M21.243 26.2777C18.8826 26.2777 16.9692 24.3626 16.9692 22.0001C16.9692 19.6375 18.8826 17.722 21.243 17.722C23.6034 17.722 25.5172 19.6375 25.5172 22.0001C25.5172 24.3626 23.6039 26.2777 21.243 26.2777Z" fill="#00AFEF"/>
<path d="M21.2431 27.6319C18.1355 27.6319 15.6163 25.11 15.6163 21.9997C15.6163 18.8889 18.1355 16.3674 21.2431 16.3674C24.351 16.3674 26.8698 18.8893 26.8698 21.9997C26.8698 25.11 24.351 27.6319 21.2431 27.6319ZM20.3692 32.4938H22.117C22.7671 32.4938 23.299 31.961 23.299 31.3107V30.306C24.1413 30.0978 24.9339 29.7651 25.6571 29.328L26.3673 30.0387C26.827 30.4988 27.579 30.4988 28.0388 30.0387L29.2745 28.8019C29.7342 28.3417 29.7342 27.5885 29.2745 27.1284L28.5644 26.4177C29.0015 25.6938 29.3336 24.9 29.542 24.0569H30.5454C31.1955 24.0569 31.7274 23.5246 31.7274 22.8739V21.125C31.7274 20.4743 31.195 19.9419 30.5454 19.9419H29.542C29.334 19.0989 29.0015 18.305 28.5644 17.5812L29.2745 16.8704C29.7342 16.4103 29.7342 15.6571 29.2745 15.1974L28.0388 13.9606C27.579 13.5 26.8265 13.5 26.3673 13.9606L25.6571 14.6714C24.9339 14.2338 24.1408 13.901 23.299 13.6933V12.6886C23.299 12.0379 22.7666 11.5055 22.117 11.5055H20.3692C19.7191 11.5055 19.1872 12.0379 19.1872 12.6886V13.6933C18.3449 13.9015 17.5517 14.2343 16.829 14.6714L16.1189 13.9606C15.6592 13.5 14.9066 13.5 14.4469 13.9606L13.2112 15.1974C12.7515 15.6576 12.7515 16.4107 13.2112 16.8704L13.9213 17.5812C13.4842 18.305 13.1517 19.0989 12.9441 19.9419H11.9403C11.2902 19.9419 10.7583 20.4743 10.7583 21.125V22.8739C10.7583 23.5246 11.2902 24.0569 11.9403 24.0569H12.9441C13.1521 24.9 13.4846 25.6938 13.9213 26.4177L13.2112 27.1284C12.7515 27.5885 12.7515 28.3417 13.2112 28.8019L14.4469 30.0387C14.9066 30.4988 15.6587 30.4988 16.1189 30.0387L16.829 29.328C17.5517 29.7655 18.3453 30.0978 19.1872 30.306V31.3107C19.1872 31.9614 19.7191 32.4938 20.3692 32.4938Z" fill="#00AFEF"/>
<path fill-rule="evenodd" clip-rule="evenodd" d="M21.2435 5.46008C30.3703 5.46008 37.7687 12.8656 37.7687 22.0001C37.7687 31.1351 30.3703 38.5402 21.2435 38.5402C12.1167 38.5402 4.71826 31.1351 4.71826 22.0001C4.71826 12.8651 12.1167 5.46008 21.2435 5.46008Z" stroke="#F16436" stroke-width="1.75008" stroke-miterlimit="22.9256"/>
<path fill-rule="evenodd" clip-rule="evenodd" d="M21.2435 1.85986C23.2299 1.85986 24.8405 3.47192 24.8405 5.46012C24.8405 7.44832 23.2299 9.06037 21.2435 9.06037C19.2571 9.06037 17.6465 7.44832 17.6465 5.46012C17.6465 3.47192 19.2571 1.85986 21.2435 1.85986Z" fill="#FEFEFE" stroke="#F16436" stroke-width="1.75008" stroke-miterlimit="22.9256"/>
<path fill-rule="evenodd" clip-rule="evenodd" d="M32.9794 6.75525C34.9658 6.75525 36.5764 8.3673 36.5764 10.3555C36.5764 12.3437 34.9658 13.9558 32.9794 13.9558C30.9929 13.9558 29.3823 12.3437 29.3823 10.3555C29.3823 8.3673 30.9929 6.75525 32.9794 6.75525Z" fill="#FEFEFE" stroke="#F16436" stroke-width="1.75008" stroke-miterlimit="22.9256"/>
<path fill-rule="evenodd" clip-rule="evenodd" d="M37.7667 18.6555C39.7531 18.6555 41.3633 20.2676 41.3633 22.2558C41.3633 24.244 39.7531 25.856 37.7667 25.856C35.7803 25.856 34.1697 24.244 34.1697 22.2558C34.1697 20.2676 35.7803 18.6555 37.7667 18.6555Z" fill="#FEFEFE" stroke="#F16436" stroke-width="1.75008" stroke-miterlimit="22.9256"/>
<path fill-rule="evenodd" clip-rule="evenodd" d="M32.8505 30.1729C34.8369 30.1729 36.4475 31.7849 36.4475 33.7731C36.4475 35.7613 34.8369 37.3734 32.8505 37.3734C30.864 37.3734 29.2534 35.7613 29.2534 33.7731C29.2534 31.7849 30.864 30.1729 32.8505 30.1729Z" fill="#FEFEFE" stroke="#F16436" stroke-width="1.75008" stroke-miterlimit="22.9256"/>
<path fill-rule="evenodd" clip-rule="evenodd" d="M21.2435 34.9399C23.2299 34.9399 24.8405 36.552 24.8405 38.5402C24.8405 40.5284 23.2299 42.1404 21.2435 42.1404C19.2571 42.1404 17.6465 40.5284 17.6465 38.5402C17.6465 36.552 19.2571 34.9399 21.2435 34.9399Z" fill="#FEFEFE" stroke="#F16436" stroke-width="1.75008" stroke-miterlimit="22.9256"/>
<path fill-rule="evenodd" clip-rule="evenodd" d="M9.66075 30.1968C11.6472 30.1968 13.2573 31.8088 13.2573 33.797C13.2573 35.7852 11.6472 37.3973 9.66075 37.3973C7.67433 37.3973 6.06372 35.7852 6.06372 33.797C6.06372 31.8088 7.67433 30.1968 9.66075 30.1968Z" fill="#FEFEFE" stroke="#F16436" stroke-width="1.75008" stroke-miterlimit="22.9256"/>
<path fill-rule="evenodd" clip-rule="evenodd" d="M4.71837 18.3999C6.70479 18.3999 8.31495 20.012 8.31495 22.0002C8.31495 23.9884 6.70479 25.6004 4.71837 25.6004C2.73195 25.6004 1.12134 23.9884 1.12134 22.0002C1.12134 20.012 2.73195 18.3999 4.71837 18.3999Z" fill="#FEFEFE" stroke="#F16436" stroke-width="1.75008" stroke-miterlimit="22.9256"/>
<path fill-rule="evenodd" clip-rule="evenodd" d="M9.35485 6.91187C11.3413 6.91187 12.9514 8.52392 12.9514 10.5121C12.9514 12.5003 11.3413 14.1124 9.35485 14.1124C7.36843 14.1124 5.75781 12.5003 5.75781 10.5121C5.75781 8.52392 7.36843 6.91187 9.35485 6.91187Z" fill="#FEFEFE" stroke="#F16436" stroke-width="1.75008" stroke-miterlimit="22.9256"/>
<path d="M50.3198 28.9947H54.0761V17.639L62.5339 28.9947H66.3159V11.4243H62.5339V22.78L54.0761 11.4243H50.3198V28.9947ZM76.077 26.0023C74.5183 26.0023 73.3683 25.0305 72.9338 23.5982H82.4648C82.4648 18.6112 80.0372 15.4652 75.8979 15.4652C72.0392 15.4652 69.1008 18.3552 69.1008 22.3451C69.1008 26.4118 72.1673 29.3018 76.1022 29.3018C78.044 29.3018 80.3183 28.4836 81.494 27.2558L79.1177 24.826C78.4022 25.5169 77.1246 26.0027 76.077 26.0027V26.0023ZM76.0513 18.7643C77.559 18.7643 78.5299 19.6083 78.8877 20.9124H72.9848C73.4702 19.5825 74.6455 18.7643 76.0513 18.7643ZM87.7032 28.9947H91.0507L93.5293 20.683L95.9823 28.9947H99.3298L103.827 15.7723H100.173L97.6691 24.0078L95.0628 15.7723H91.9711L89.3647 24.0078L86.8604 15.7723H83.2065L87.7036 28.9947H87.7032ZM124.857 11.4243V18.3299H116.859V11.4243H113.103V28.9947H116.859V21.7315H124.857V28.9947H128.614V11.4243H124.857ZM138.477 29.3018C142.386 29.3018 145.657 26.1305 145.657 22.3709C145.657 18.6112 142.386 15.4652 138.477 15.4652C134.542 15.4652 131.245 18.6112 131.245 22.3709C131.245 26.1305 134.542 29.3018 138.477 29.3018ZM138.477 26.1558C136.484 26.1558 134.823 24.4169 134.823 22.3704C134.823 20.3244 136.484 18.6108 138.477 18.6108C140.444 18.6108 142.105 20.324 142.105 22.3704C142.105 24.4164 140.445 26.1558 138.477 26.1558ZM151.917 18.2274V15.7723H148.187V28.9947H151.917V22.6775C151.917 20.1966 153.681 18.6108 156.44 18.6108V15.4648C154.422 15.4648 152.786 16.5133 151.917 18.2269V18.2274ZM160.452 13.9561C161.55 13.9561 162.445 13.0354 162.445 11.9101C162.445 10.8616 161.55 9.91516 160.452 9.91516C159.302 9.91516 158.408 10.8616 158.408 11.9101C158.408 13.0354 159.302 13.9561 160.452 13.9561ZM158.561 28.9947H162.292V15.7723H158.561V28.9947ZM164.949 28.9947H176.499V25.8235H169.804L176.448 18.4067V15.7723H165.128V18.9436H171.593L164.949 26.3604V28.9947ZM185.621 29.3018C189.531 29.3018 192.802 26.1305 192.802 22.3709C192.802 18.6112 189.531 15.4652 185.621 15.4652C181.686 15.4652 178.39 18.6112 178.39 22.3709C178.39 26.1305 181.686 29.3018 185.621 29.3018ZM185.621 26.1558C183.628 26.1558 181.967 24.4169 181.967 22.3704C181.967 20.3244 183.628 18.6108 185.621 18.6108C187.589 18.6108 189.25 20.324 189.25 22.3704C189.25 24.4164 187.589 26.1558 185.621 26.1558ZM202.972 15.4652C201.259 15.4652 199.777 16.2324 198.986 17.4345V15.7723H195.255V28.9947H198.986V21.0916L199.011 21.1684C199.011 19.736 200.212 18.6108 201.771 18.6108C203.253 18.6108 204.275 19.736 204.275 21.3729V28.9943H207.878V20.58C207.878 17.5875 205.834 15.4648 202.972 15.4648V15.4652Z" fill="#00AFEF"/>
<path d="M115.847 40.7971H116.83V36.0372L119.173 40.4074L121.517 36.0372V40.7971H122.499V34.1104H121.517L119.173 38.4806L116.83 34.1104H115.847V40.7971ZM126.155 35.648C125.601 35.648 124.969 35.7939 124.25 36.1542L124.6 36.8649C125.037 36.641 125.524 36.4463 126.019 36.4463C127.021 36.4463 127.313 37.1178 127.313 37.7504V37.9062C126.826 37.7405 126.292 37.6335 125.796 37.6335C124.687 37.6335 123.783 38.305 123.783 39.3074C123.783 40.2905 124.57 40.9136 125.64 40.9136C126.252 40.9136 126.943 40.6314 127.313 40.1058V40.7966H128.256V37.75C128.256 36.5041 127.507 35.6475 126.155 35.6475V35.648ZM125.825 40.1545C125.193 40.1545 124.706 39.8235 124.706 39.2785C124.706 38.7335 125.27 38.3537 125.941 38.3537C126.437 38.3537 126.904 38.4219 127.312 38.5483V39.2198C127.147 39.8429 126.446 40.1541 125.824 40.1541L125.825 40.1545ZM132.204 35.648C131.523 35.648 130.91 35.9984 130.609 36.4947V35.7645H129.646V40.7966H130.609V37.5359C130.687 36.9421 131.29 36.4847 131.99 36.4847C132.671 36.4847 133.147 37.0104 133.147 37.7599V40.7966H134.091V37.5942C134.091 36.4554 133.313 35.6475 132.204 35.6475V35.648ZM138.933 35.765V39.0256C138.856 39.6194 138.253 40.0768 137.552 40.0768C136.872 40.0768 136.395 39.5512 136.395 38.8017V35.765H135.452V38.9674C135.452 40.1062 136.23 40.914 137.338 40.914C138.019 40.914 138.631 40.5636 138.933 40.0674V40.7976H139.896V35.7654H138.933L138.933 35.765ZM142.619 35.21C142.619 34.8596 142.852 34.6067 143.134 34.6067C143.348 34.6067 143.543 34.6844 143.65 34.7914L144 34.1493C143.728 33.9253 143.358 33.7889 142.999 33.7889C142.221 33.7889 141.676 34.3534 141.676 35.1612V35.7645H140.918V36.5823H141.676V40.7966H142.62V36.5823H143.806V35.7645H142.62V35.2095L142.619 35.21ZM146.907 35.648C146.353 35.648 145.721 35.7939 145.001 36.1542L145.351 36.8649C145.789 36.641 146.275 36.4463 146.771 36.4463C147.773 36.4463 148.065 37.1178 148.065 37.7504V37.9062C147.578 37.7405 147.044 37.6335 146.547 37.6335C145.439 37.6335 144.534 38.305 144.534 39.3074C144.534 40.2905 145.322 40.9136 146.392 40.9136C147.004 40.9136 147.695 40.6314 148.064 40.1058V40.7966H149.008V37.75C149.008 36.5041 148.259 35.6475 146.907 35.6475L146.907 35.648ZM146.577 40.1545C145.945 40.1545 145.458 39.8235 145.458 39.2785C145.458 38.7335 146.022 38.3537 146.693 38.3537C147.189 38.3537 147.656 38.4219 148.064 38.5483V39.2198C147.899 39.8429 147.198 40.1541 146.576 40.1541L146.577 40.1545ZM152.771 40.9136C153.52 40.9136 154.172 40.602 154.658 40.1058L154.007 39.512C153.695 39.8624 153.248 40.0764 152.781 40.0764C151.857 40.0764 151.099 39.2586 151.099 38.276C151.099 37.3025 151.857 36.4852 152.771 36.4852C153.238 36.4852 153.676 36.6893 153.977 37.0302L154.629 36.4265C154.152 35.9496 153.501 35.648 152.781 35.648C151.342 35.648 150.126 36.8451 150.126 38.276C150.126 39.707 151.342 40.9136 152.771 40.9136ZM158.042 39.8917C157.935 39.9987 157.74 40.0764 157.527 40.0764C157.245 40.0764 157.011 39.8235 157.011 39.4731V36.5823H158.197V35.7645H157.011V34.3823H156.068V35.7645H155.309V36.5823H156.068V39.5413C156.068 40.3491 156.612 40.9136 157.39 40.9136C157.75 40.9136 158.119 40.7772 158.391 40.5533L158.041 39.8913L158.042 39.8917ZM162.836 35.765V39.0256C162.759 39.6194 162.155 40.0768 161.455 40.0768C160.774 40.0768 160.298 39.5512 160.298 38.8017V35.765H159.355V38.9674C159.355 40.1062 160.132 40.914 161.241 40.914C161.922 40.914 162.534 40.5636 162.836 40.0674V40.7976H163.799V35.7654H162.836L162.836 35.765ZM166.211 36.7286V35.765H165.248V40.7971H166.211V37.9356C166.298 37.0596 167.037 36.4856 168.078 36.4856V35.6484C167.212 35.6484 166.532 36.067 166.211 36.729V36.7286ZM171.326 40.0574C170.46 40.0574 169.848 39.4537 169.721 38.617H173.679C173.679 36.8162 172.795 35.6484 171.258 35.6484C169.867 35.6484 168.749 36.7579 168.749 38.2666C168.749 39.814 169.936 40.914 171.336 40.914C172.046 40.914 172.921 40.6124 173.368 40.1356L172.766 39.5124C172.464 39.824 171.852 40.0574 171.326 40.0574H171.326ZM171.297 36.5046C172.162 36.5046 172.638 37.069 172.745 37.848H169.731C169.886 37.0302 170.518 36.5046 171.296 36.5046H171.297ZM177.608 40.7971H178.59V38.4707H180.418C181.828 38.4707 182.898 37.5653 182.898 36.2906C182.898 35.0154 181.828 34.1104 180.418 34.1104H177.607V40.7971H177.608ZM178.59 37.5558V35.0253H180.282C181.245 35.0253 181.896 35.5022 181.896 36.2906C181.896 37.079 181.245 37.5558 180.282 37.5558H178.59ZM184.901 36.7286V35.765H183.938V40.7971H184.901V37.9356C184.989 37.0596 185.728 36.4856 186.768 36.4856V35.6484C185.903 35.6484 185.222 36.067 184.901 36.729V36.7286ZM189.939 40.914C191.368 40.914 192.574 39.707 192.574 38.2765C192.574 36.8455 191.368 35.6484 189.939 35.6484C188.5 35.6484 187.284 36.8455 187.284 38.2765C187.284 39.7075 188.499 40.914 189.939 40.914ZM189.939 40.0768C189.015 40.0768 188.246 39.2591 188.246 38.2765C188.246 37.303 189.015 36.4856 189.939 36.4856C190.843 36.4856 191.611 37.3034 191.611 38.2765C191.611 39.2595 190.843 40.0768 189.939 40.0768ZM195.025 35.21C195.025 34.8596 195.258 34.6067 195.54 34.6067C195.754 34.6067 195.949 34.6844 196.056 34.7914L196.406 34.1493C196.133 33.9253 195.764 33.7889 195.404 33.7889C194.627 33.7889 194.082 34.3534 194.082 35.1612V35.7645H193.324V36.5823H194.082V40.7966H195.025V36.5823H196.212V35.7645H195.025V35.2095L195.025 35.21ZM197.68 34.9278C197.991 34.9278 198.253 34.655 198.253 34.3439C198.253 34.0418 197.991 33.7695 197.68 33.7695C197.349 33.7695 197.096 34.0423 197.096 34.3439C197.096 34.6555 197.349 34.9278 197.68 34.9278ZM197.193 40.7971H198.156V35.765H197.193V40.7971ZM201.9 39.8917C201.793 39.9987 201.598 40.0764 201.384 40.0764C201.102 40.0764 200.869 39.8235 200.869 39.4731V36.5823H202.055V35.7645H200.869V34.3823H199.925V35.7645H199.167V36.5823H199.925V39.5413C199.925 40.3491 200.47 40.9136 201.248 40.9136C201.608 40.9136 201.977 40.7772 202.249 40.5533L201.899 39.8913L201.9 39.8917ZM205.05 40.9136C206.15 40.9136 206.957 40.3099 206.957 39.3562C206.957 38.3537 206.072 38.081 205.245 37.8376C204.399 37.5748 204.088 37.4578 204.088 37.0686C204.088 36.6888 204.477 36.4748 204.972 36.4748C205.41 36.4748 205.916 36.6405 206.402 36.9422L206.83 36.2314C206.285 35.8711 205.624 35.6475 204.972 35.6475C203.903 35.6475 203.134 36.2513 203.144 37.1756C203.144 37.9934 203.718 38.3239 204.875 38.6454C205.498 38.8206 206.013 38.9665 206.013 39.4338C206.013 39.8231 205.624 40.0859 205.06 40.0859C204.467 40.0859 203.893 39.8619 203.358 39.4727L202.901 40.1636C203.504 40.6503 204.311 40.9131 205.05 40.9131L205.05 40.9136Z" fill="#373435"/>
</svg>
