<svg clip-rule="evenodd" fill-rule="evenodd" height="8.26772in" image-rendering="optimizeQuality" shape-rendering="geometricPrecision" text-rendering="geometricPrecision" viewBox="0 0 11692.91 8267.72" width="11.6929in" xmlns="http://www.w3.org/2000/svg"><path d="m4869.13 1133.93c29.26-8.18 57.99-15.96 86.24-23.35l3.22-.84c28.13-7.35 55.8-14.33 82.95-20.92l1.97-.48c27.05-6.55 53.63-12.74 79.74-18.56l3.42-.76c25.9-5.75 51.35-11.16 76.34-16.2l2.91-.58c24.77-4.98 49.09-9.61 72.99-13.92l4.17-.75c23.59-4.22 46.76-8.11 69.52-11.68l4.35-.69c22.62-3.51 44.84-6.71 66.66-9.61l4.22-.56c21.94-2.87 43.48-5.43 64.62-7.68l3.01-.32c21.27-2.24 42.15-4.17 62.63-5.79l2.97-.24c20.69-1.61 40.99-2.93 60.89-3.94l1.43-.07c20.11-1 39.85-1.7 59.19-2.09l1.35-.03c16.63-.32 32.87-.32 48.96-.21 6.2.05 12.37.14 18.51.24 11.95.21 23.75.54 35.39.99 5.43.22 10.9.4 16.27.66 13.94.67 27.63 1.55 41.13 2.57 2.69.2 5.47.35 8.15.56 16.59 1.33 32.82 2.94 48.74 4.8 2.23.26 4.39.59 6.61.86 13.35 1.63 26.52 3.41 39.44 5.38 4.04.62 8.02 1.29 12.01 1.94 11.26 1.84 22.39 3.78 33.33 5.88 3.87.74 7.74 1.48 11.57 2.25 11.66 2.35 23.11 4.86 34.4 7.51 2.59.61 5.24 1.17 7.81 1.8 28.28 6.83 55.4 14.59 81.44 23.2 1.77.58 3.49 1.21 5.25 1.8 11.07 3.74 21.97 7.61 32.67 11.65l7.34 2.81c10.36 4.01 20.55 8.15 30.56 12.44 1.89.81 3.8 1.6 5.67 2.42 36.17 15.77 70.1 33.33 102.06 52.47l3.03 1.84c9.64 5.83 19.11 11.8 28.41 17.91l3.44 2.26c41.27 27.39 79.21 57.48 114.52 89.74l.96.88c157.79 144.52 263.4 331.95 383.45 512.01l.35.52c4.85 7.27 9.73 14.54 14.63 21.78l4.62 6.8c4.37 6.43 8.76 12.85 13.18 19.25l6.15 8.82c4.17 5.98 8.33 11.97 12.55 17.93 5.83 8.22 11.7 16.42 17.64 24.58l.06.08c3.2 4.39 6.44 8.74 9.68 13.11 3.55 4.78 7.08 9.58 10.66 14.34 3.2 4.25 6.44 8.48 9.69 12.71 3.77 4.91 7.56 9.81 11.37 14.69 3.16 4.03 6.33 8.06 9.53 12.07 4.14 5.19 8.33 10.34 12.54 15.48 3 3.68 5.99 7.36 9.02 11.02 5.81 6.99 11.72 13.92 17.69 20.81 2.53 2.93 5.07 5.85 7.63 8.76 6.24 7.11 12.55 14.17 18.96 21.17 2.82 3.07 5.69 6.1 8.55 9.15 5.07 5.41 10.15 10.81 15.32 16.15 3.18 3.28 6.38 6.54 9.6 9.79 5.06 5.1 10.16 10.17 15.32 15.2 3.24 3.15 6.47 6.32 9.75 9.44 5.91 5.63 11.92 11.17 17.97 16.69 2.6 2.37 5.14 4.77 7.76 7.12 8.56 7.69 17.31 15.24 26.2 22.69 2.45 2.06 4.99 4.05 7.46 6.09 6.67 5.47 13.37 10.91 20.21 16.26 3.49 2.72 7.03 5.41 10.57 8.1 6.11 4.64 12.28 9.25 18.54 13.8 3.72 2.7 7.46 5.4 11.25 8.07 6.61 4.65 13.31 9.22 20.08 13.75 3.48 2.33 6.91 4.68 10.42 6.98 9.5 6.22 19.22 12.3 29.09 18.26.73.45 1.43.92 2.17 1.37 146.09 87.62 286.77 155.51 421.06 212.04 14.92 6.28 29.76 12.43 44.52 18.44 14.76 6.01 29.44 11.89 44.04 17.66 14.6 5.76 29.12 11.41 43.55 16.96 14.43 5.54 28.78 10.98 43.05 16.32 14.27 5.35 28.44 10.6 42.54 15.76 14.09 5.17 28.1 10.25 42.03 15.26h.01c13.93 5.02 27.76 9.95 41.51 14.84 13.75 4.88 27.41 9.7 40.98 14.48l40.44 14.19 39.89 13.97c13.21 4.63 26.31 9.23 39.33 13.82 13.02 4.59 25.94 9.16 38.77 13.74h.01c12.83 4.57 25.56 9.15 38.2 13.73 12.63 4.58 25.17 9.17 37.62 13.78 12.44 4.62 24.78 9.24 37.03 13.91 12.25 4.67 24.39 9.36 36.44 14.11 12.05 4.74 23.99 9.53 35.83 14.37 11.84 4.85 23.58 9.74 35.22 14.7 11.64 4.96 23.17 10 34.6 15.11v.01c11.43 5.11 22.75 10.3 33.97 15.57 11.22 5.28 22.33 10.65 33.33 16.12 11.01 5.47 21.9 11.04 32.69 16.73 10.79 5.69 21.46 11.48 32.04 17.41 10.57 5.93 21.03 11.97 31.37 18.15h.01c10.34 6.18 20.58 12.5 30.7 18.97 10.12 6.47 20.13 13.08 30.03 19.86 9.89 6.78 19.68 13.7 29.34 20.81 9.67 7.11 19.22 14.38 28.65 21.83 9.43 7.46 18.75 15.1 27.94 22.93 9.2 7.83 18.28 15.86 27.24 24.09 8.96 8.24 17.8 16.67 26.52 25.32v.01c8.72 8.66 17.31 17.52 25.78 26.63h.01c8.47 9.1 16.83 18.42 25.05 28 .78.91 1.54 1.89 2.32 2.81 23.83 27.93 46.65 57.83 68.35 90.1v.01c7.47 11.11 14.82 22.49 22.04 34.17 14.43 23.34 28.35 47.83 41.73 73.56 6.69 12.86 13.25 26.03 19.68 39.52 6.43 13.48 12.72 27.3 18.88 41.44v.01c6.16 14.14 12.19 28.62 18.07 43.43v.01c5.89 14.81 11.64 29.98 17.26 45.49v.01c11.23 31.03 21.91 63.49 32.03 97.45v.01c50.59 169.83 87.17 377.48 108.35 634.44-179.35 605.89-395.85 852.03-634.28 873.24-356.13-113.92-787.5-479.88-1095.26-874.07l-1.3-1.67c-115.71-148.41-259.94-305.88-419.03-457.81v-.01c-7.23-6.9-14.49-13.8-21.78-20.67v-.01c-14.58-13.76-29.28-27.46-44.09-41.11v-.01c-7.4-6.82-14.83-13.63-22.29-20.42v-.01c-14.91-13.58-29.93-27.09-45.03-40.53v-.01c-7.55-6.72-15.13-13.41-22.72-20.09v-.01c-15.2-13.35-30.48-26.62-45.84-39.8v-.01c-7.68-6.59-15.38-13.14-23.09-19.68l-.01-.01c-7.71-6.54-15.45-13.05-23.2-19.53v-.01c-7.75-6.48-15.52-12.94-23.3-19.37v-.01c-7.78-6.43-15.58-12.83-23.39-19.2l-.01-.01c-15.62-12.74-31.31-25.37-47.03-37.88v-.01c-7.86-6.25-15.74-12.46-23.62-18.65v-.01c-15.77-12.37-31.58-24.61-47.42-36.7l-.01-.01c-7.92-6.04-15.85-12.05-23.78-18.02-182.5-137.38-368.35-254.86-541.9-335.72-15.09-7.03-30.09-13.79-44.97-20.3-14.88-6.52-29.67-12.78-44.34-18.83-14.67-6.05-29.23-11.87-43.67-17.5-7.22-2.81-14.42-5.57-21.58-8.29-14.33-5.44-28.54-10.68-42.63-15.77-7.04-2.54-14.06-5.04-21.04-7.5-6.98-2.47-13.93-4.89-20.85-7.28-6.92-2.39-13.8-4.75-20.65-7.07-6.85-2.33-13.68-4.61-20.46-6.88-6.79-2.27-13.54-4.5-20.26-6.71l-20.06-6.56v-.01l-19.85-6.41-19.63-6.3-19.42-6.2-19.2-6.12-18.98-6.05-18.75-6.01-18.52-5.98-18.28-5.96h-.01c-6.05-1.99-12.06-3.98-18.04-5.97-5.98-2-11.91-3.99-17.8-6-5.9-2.01-11.75-4.02-17.56-6.04-5.81-2.02-11.58-4.05-17.31-6.1-5.72-2.04-11.41-4.1-17.05-6.18-5.65-2.08-11.24-4.16-16.8-6.27-5.56-2.11-11.06-4.24-16.53-6.39-5.46-2.15-10.89-4.32-16.26-6.52-16.13-6.59-31.87-13.41-47.18-20.53-5.1-2.37-10.16-4.78-15.17-7.22-5.01-2.44-9.97-4.92-14.89-7.44-14.74-7.56-29.05-15.48-42.9-23.85-13.86-8.36-27.26-17.16-40.2-26.48-94.87-68.36-164.6-164.65-202.33-320.59-18.86-77.98-38.37-159.83-57.76-242.13l-5.28-22.44v-.01l-5.27-22.45v-.01c-5.26-22.45-10.51-44.9-15.72-67.26l-5.19-22.32v-.01l-5.17-22.25v-.01l-10.24-44.23-5.06-21.94-5.02-21.81-4.98-21.66-4.93-21.49v-.01l-4.88-21.31-4.82-21.12-4.76-20.91-4.7-20.68-4.63-20.44-4.57-20.17-4.49-19.91-4.41-19.61-4.33-19.31-4.25-18.99-4.16-18.65-4.07-18.3-3.97-17.93-3.88-17.55-3.78-17.15-3.67-16.74c-3.62-16.52-7.07-32.4-10.35-47.56-2.19-10.11-4.29-19.9-6.3-29.35h-.01l-2.96-13.92c-6.77-31.88-12.48-59.48-16.94-81.92-7-35.25-10.89-57.76-10.89-64.05v-91.5l.83-.23z" fill="#f1b255"/><path d="m4868.3 1147.66c1770.44-444.02 1474.36 675.91 2199.89 1111.13 1010.38 606.06 1981.16 350.78 2131.38 1876.45-432.09 1409.44-1073.88 786.24-1719.02-41.23-336.58-431.72-914.66-940.3-1397.58-1165.28-482.94-224.98-863.43-173.77-973.2-627.43-109.75-453.66-241.47-1039.04-241.47-1075.63v-78.02z" fill="#e6873c"/><path d="m5190.51 1055.35c999.63-82.14 1060.19 945.39 1693.03 1324.99 991.8 594.94 2095.98 359.73 2311.86 1768.54-432.04 1391.89-1071.8 769.93-1714.86-54.87-336.58-431.72-914.66-940.3-1397.58-1165.28-482.94-224.98-863.43-173.77-973.2-627.43-109.75-453.66-241.47-1039.04-241.47-1075.63v-91.51c114.98-32.17 222.16-58.26 322.22-78.81z" fill="#e17134"/><path d="m5071.35 1088.49c959.22-113.41 800.42 1228.5 2420.9 1755.74 1242.47 404.24 1719.16 670.34 1719.16 1342.46 0 1791.13-1452.01 3243.14-3243.16 3243.14-1791.13 0-3243.14-1430.05-3243.14-3243.14 0-2003.35 1738.6-3031.16 2346.24-3098.2z" fill="#418bc0"/><path d="m9080 5102.61c-1057.83 2764.16-5696.94 2989.57-5694.41-1269.91.33-554.92-155.61-857.37-375.95-973.04-174.41 380.77-284.54 822.99-284.54 1327.04 0 1813.09 1452.01 3243.13 3243.14 3243.13 1473.02 0 2716.46-982.13 3111.76-2327.21z" fill="#88c6dd"/><path d="m5968.24 5286.62c605.85 0 1099.95-494.11 1099.95-1099.95 0-605.82-494.1-1099.94-1099.95-1099.94-605.81 0-1099.93 494.13-1099.93 1099.94 0 605.83 494.12 1099.95 1099.93 1099.95z" fill="#fefefe"/><path d="m8773.72 2543.37c-296.84-135.28-987.62-284-1409.64-602.76-412.11-311.28-526.46-682.07-772.93-895.53 435.27 110.09 1476.28 469.62 2182.57 1498.29z" fill="#f2c4a2"/><path d="m6388.12 1001.96s32.01 4.6 89.51 16.7c6.39 1.35 13.09 2.78 20.1 4.32 7.01 1.53 14.32 3.16 21.93 4.9 45.68 10.39 102.04 24.4 167.16 42.89 54.27 15.41 114.62 33.94 179.94 56.07 26.13 8.85 53.05 18.29 80.69 28.33 13.82 5.02 27.82 10.2 42 15.52 14.18 5.33 28.52 10.81 43.03 16.46 14.51 5.65 29.17 11.46 44 17.43 14.83 5.97 29.81 12.1 44.93 18.41h.01c15.12 6.3 30.39 12.78 45.8 19.42v.01c15.41 6.64 30.94 13.46 46.61 20.45 15.67 6.99 31.46 14.16 47.38 21.51 15.91 7.35 31.94 14.88 48.09 22.6 16.15 7.71 32.39 15.61 48.75 23.7 16.35 8.09 32.8 16.36 49.34 24.83 16.54 8.47 33.18 17.13 49.89 25.98 16.72 8.85 33.52 17.91 50.39 27.16 16.88 9.26 33.82 18.71 50.83 28.37 17.01 9.66 34.09 19.52 51.22 29.59 17.13 10.07 34.31 20.35 51.55 30.84 17.24 10.49 34.52 21.19 51.84 32.11 17.32 10.92 34.67 22.05 52.06 33.41 17.38 11.35 34.81 22.93 52.24 34.73 17.44 11.8 34.89 23.82 52.35 36.07 17.46 12.25 34.94 24.73 52.42 37.44 17.48 12.72 34.96 25.65 52.43 38.83 17.48 13.18 34.95 26.59 52.4 40.25 17.46 13.66 34.88 27.56 52.3 41.69 17.41 14.14 34.8 28.53 52.15 43.16 17.35 14.64 34.68 29.52 51.95 44.65 17.28 15.13 34.51 30.52 51.69 46.16 17.18 15.64 34.31 31.54 51.38 47.7h.01c17.07 16.15 34.08 32.57 51.02 49.25 16.94 16.69 33.81 33.63 50.61 50.84 16.8 17.21 33.5 34.7 50.13 52.44 33.26 35.51 66.17 72.1 98.65 109.82 32.49 37.71 64.56 76.55 96.13 116.53 94.72 119.96 185.03 250.28 268.98 391.83 0 0 .63.81 1.67 2.23.83 1.13 1.93 2.67 3.18 4.5 1.56 2.28 3.35 5.03 5.17 8.03l1.09 1.83 1.08 1.89 1.07 1.93c.7 1.3 1.39 2.63 2.05 3.96l.95 2.01.89 2.02h.01l.83 2.01.75 2c.24.66.45 1.32.66 1.98.2.65.39 1.3.56 1.95.17.65.31 1.28.45 1.91.13.63.24 1.24.33 1.85.09.61.16 1.21.2 1.8.04.59.06 1.16.06 1.72-.15 19.76-31.3 23.66-168.12-55.34-39.08-22.57-90.78-45.18-151.91-68.57-48.91-18.72-103.85-37.93-163.22-58.04l-22.46-7.58c-22.67-7.63-45.93-15.38-69.7-23.29h-.01l-23.93-7.96-24.25-8.06h-.01l-24.56-8.17h-.01l-24.84-8.29-25.1-8.41-25.35-8.53h-.01l-25.57-8.66h-.01l-25.77-8.79h-.01l-25.96-8.93h-.01l-26.13-9.07h-.01c-8.74-3.05-17.5-6.12-26.28-9.21h-.01c-8.78-3.1-17.59-6.22-26.41-9.36h-.01c-8.82-3.15-17.67-6.32-26.52-9.52h-.01c-26.57-9.59-53.3-19.43-80.07-29.52h-.01c-17.84-6.73-35.72-13.57-53.59-20.54-8.94-3.48-17.87-6.99-26.8-10.54h-.01c-17.86-7.08-35.71-14.3-53.52-21.64h-.01c-17.81-7.34-35.58-14.81-53.28-22.42-70.83-30.43-140.63-63.03-207.78-98.19-16.79-8.79-33.41-17.73-49.84-26.85-8.22-4.56-16.39-9.15-24.5-13.8-64.94-37.13-126.62-76.96-183.43-119.87-21.3-16.09-41.81-32.33-61.58-48.71v-.01c-13.18-10.92-26.04-21.89-38.58-32.92v-.01c-6.27-5.51-12.46-11.03-18.58-16.56v-.01c-6.11-5.54-12.16-11.08-18.13-16.63-5.97-5.56-11.87-11.12-17.69-16.69v-.01c-5.82-5.57-11.58-11.15-17.27-16.74v-.01c-5.69-5.59-11.3-11.19-16.86-16.79-5.55-5.61-11.04-11.22-16.46-16.83-5.42-5.62-10.78-11.24-16.07-16.87h-.01c-5.3-5.63-10.52-11.26-15.7-16.89-5.17-5.64-10.28-11.27-15.34-16.91h-.01c-5.06-5.63-10.05-11.29-15-16.93-4.94-5.65-9.83-11.29-14.66-16.93h-.01c-4.83-5.64-9.61-11.29-14.34-16.93-4.73-5.64-9.41-11.28-14.04-16.92-4.63-5.64-9.21-11.28-13.74-16.91l-.01-.01c-4.53-5.63-9.02-11.26-13.46-16.89h-.01c-4.44-5.63-8.83-11.25-13.2-16.87-4.36-5.62-8.67-11.23-12.94-16.83h-.01c-4.28-5.6-8.51-11.2-12.7-16.79-109.14-145.33-192.71-285.37-289.37-400.59h-.01c-14.87-17.72-30.04-34.86-45.68-51.34h-.01c-7.81-8.24-15.74-16.31-23.8-24.22h-.01c-4.03-3.95-8.09-7.85-12.18-11.72h-.01c-4.09-3.87-8.23-7.68-12.39-11.46h-.01c-4.17-3.77-8.37-7.5-12.61-11.18-4.24-3.68-8.52-7.31-12.85-10.89v-.01c-4.32-3.59-8.69-7.12-13.1-10.61-4.41-3.49-8.86-6.93-13.36-10.32-4.5-3.39-9.04-6.73-13.63-10.02l-.01-.01c-4.59-3.29-9.23-6.53-13.92-9.71l-.01-.01c-4.69-3.19-9.43-6.32-14.22-9.4-4.72-3.04-9.31-6.02-13.76-8.93l-.39-.26c-8.56-5.61-16.63-10.99-24.23-16.17l-1.69-1.15c-3.59-2.45-7.06-4.85-10.43-7.2l-1.42-.99c-3.1-2.17-6.11-4.3-9.04-6.39l-1.21-.86c-3.04-2.18-5.96-4.3-8.81-6.39l-1.99-1.47c-2.83-2.09-5.6-4.15-8.24-6.15l-.05-.04c-2.64-2-5.16-3.95-7.62-5.87l-1.82-1.42c-2.33-1.83-4.57-3.61-6.73-5.36l-1.41-1.16c-1.8-1.47-3.55-2.91-5.24-4.33l-1.65-1.39c-1.93-1.63-3.78-3.23-5.56-4.79l-1.32-1.17c-1.53-1.36-3.02-2.7-4.44-4.01l-1.04-.95c-1.57-1.46-3.06-2.88-4.5-4.28l-1.38-1.36c-1.15-1.15-2.27-2.26-3.33-3.36l-1.56-1.63c-.96-1.01-1.87-2-2.75-2.97l-1.22-1.37c-1.02-1.15-1.98-2.27-2.88-3.36l-1.04-1.3c-.64-.8-1.26-1.6-1.85-2.38l-.89-1.17c-.74-1.01-1.43-2-2.07-2.96l-.79-1.24c-.44-.7-.86-1.39-1.25-2.07l-.59-1c-.48-.87-.9-1.71-1.29-2.54l-.54-1.2c-.28-.64-.53-1.27-.76-1.89l-.4-1.16c-.2-.61-.37-1.22-.51-1.8l-.21-.96c-.14-.7-.24-1.39-.3-2.05l-.03-.75c-.02-.48-.02-.95 0-1.42l.04-.78c.06-.61.17-1.2.3-1.77l.17-.61c.13-.46.29-.91.47-1.34l.19-.47c.25-.53.55-1.04.87-1.53l.34-.5c.35-.5.74-.98 1.17-1.43l.12-.12c.44-.44.91-.87 1.41-1.27l.38-.31c.54-.42 1.12-.82 1.73-1.2l.28-.17c.58-.34 1.19-.67 1.82-.98l.33-.16c.73-.35 1.5-.68 2.31-.98l.18-.06c1.67-.63 3.48-1.17 5.4-1.63l.24-.06c26.89-6.3 75.81 2.83 86.12 4.89l.31.07.1.02.36.07.31.07.14.03.13.03.62.13zm-101.8 23.82c-.48-.87-.89-1.71-1.29-2.54z" fill="#f1b255"/><path d="m8548.54 2249.65c-332.79-110.68-765.19-251.02-1063.38-476.24-266.48-201.28-408.45-427.42-542.15-619.83 445.81 161.38 1081.71 481.81 1605.53 1096.07z" fill="#e17134"/></svg>